# xmcd
#
# Track frame offsets:
#	150
#	19835
#	38067
#	52864
#	72135
#	86635
#	101337
#	117050
#	133045
#	150000
#	167592
#	184520
#	204817
#	221975
#	237337
#
# Disc length: 3416 seconds
#
# Revision: 6
# Processed by: cddbd v1.5.2PL0 Copyright (c) Steve Scherf et al.
# Submitted via: EZCDAudioConverter 8.2.2.1
#
DISCID=b50d560f
DTITLE=LEANDRO E LEONARDO - HORIZONTE AZUL [CD 063015766-2) CHANTECLER
DYEAR=1996
DGENRE=Sertanejo
TTITLE0=EU SOU DESEJO, VOCÊ É PAIXÃO (RIGHT HERE WAITING) (BY GILMAR SINISTRO)
TTITLE1=HORIZONTE AZUL (BY GILMAR SINISTRO)
TTITLE2=TOURO DE RODEIO (BY GILMAR SINISTRO)
TTITLE3=SEMPRE SERÁ (BY GILMAR SINISTRO)
TTITLE4=SAUDADE CIGANA (BY GILMAR SINISTRO)
TTITLE5=DEVOLVA A PASSAGEM (BY GILMAR SINISTRO)
TTITLE6=PIMBA (BY GILMAR SINISTRO)
TTITLE7=AMOR ANTIGO (BY GILMAR SINISTRO)
TTITLE8=LOUCURAS DE AMOR (BY GILMAR SINISTRO)
TTITLE9=DOCE MISTÉRIO (BY GILMAR SINISTRO)
TTITLE10=POR CAUSA DELA (BY GILMAR SINISTRO)
TTITLE11=O LUTADOR (THE BOXER) (BY GILMAR SINISTRO)
TTITLE12=MORDIDA NA MAÇÃ (BY GILMAR SINISTRO)
TTITLE13=É NISSO QUE DÁ (BY GILMAR SINISTRO)
TTITLE14=SECRETÁRIA ELETRÔNICA (BY GILMAR SINISTRO)
EXTD=
EXTT0=
EXTT1=
EXTT2=
EXTT3=
EXTT4=
EXTT5=
EXTT6=
EXTT7=
EXTT8=
EXTT9=
EXTT10=
EXTT11=
EXTT12=
EXTT13=
EXTT14=
PLAYORDER=
